<?xml version="1.0" encoding="iso-8859-1"?>
<!-- Uploaded to: SVG Repo, www.svgrepo.com, Generator: SVG Repo Mixer Tools -->
<svg fill="#CA9D3D" height="800px" width="800px" version="1.1" id="Layer_1" xmlns="http://www.w3.org/2000/svg" xmlns:xlink="http://www.w3.org/1999/xlink" 
	 viewBox="0 0 512 512" xml:space="preserve">
<g>
	<g>
		<polygon points="192.009,165.664 192.009,346.315 342.537,255.989 		"/>
	</g>
</g>
<g>
	<g>
		<path d="M426.667,0H85.333C38.293,0,0,38.272,0,85.333v341.333C0,473.707,38.293,512,85.333,512h341.333
			C473.728,512,512,473.707,512,426.667V85.333C512,38.272,473.728,0,426.667,0z M394.987,274.283l-213.333,128
			c-3.371,2.027-7.168,3.051-10.987,3.051c-3.627,0-7.232-0.917-10.496-2.773c-6.699-3.797-10.837-10.88-10.837-18.56V128
			c0-7.701,4.139-14.784,10.837-18.581c6.677-3.776,14.869-3.669,21.483,0.277l213.333,128c6.421,3.861,10.347,10.816,10.347,18.304
			C405.333,263.488,401.408,270.421,394.987,274.283z"/>
	</g>
</g>
</svg>